# xmcd
# Track frame offsets:
# 150
# 21254
# 41823
# 62374
# 81165
#
# Disc length: 1388 seconds
# Revision: 0
# Processed by: cddbd v1.5.2PL0 Copyright (c) Steve Scherf et al.
# Submitted via: VisiTrax 2.10.3.257 - For more info visit www.synapsa.com
#
DISCID=37056a05
DTITLE=January Voodoo - Eyes Open Wide
DYEAR=2003
DGENRE=Metal
TTITLE0=The Scream
TTITLE1=Eyes open Wide
TTITLE2=Lost and Never Found
TTITLE3=The Machine
TTITLE4=I Live
EXTD=
EXTT0=
EXTT1=
EXTT2=
EXTT3=
EXTT4=
PLAYORDER=
